# xmcd
#
# Track frame offsets:
#	150
#	28491
#	58903
#	75554
#	111011
#	125274
#	155745
#	174728
#	203442
#	217692
#
# Disc length: 3255 seconds
#
# Revision: 1
# Processed by: cddbd v1.5.2PL0 Copyright (c) Steve Scherf et al.
# Submitted via: audiograbber 1.83.01
#
DISCID=840cb50a
DTITLE=Carman - Volume 1 - Story Songs
DYEAR=2001
DGENRE=Contemporary Christian
TTITLE0=Sundays On The Way
TTITLE1=Witches Invitation
TTITLE2=God, God, God
TTITLE3=Jericho: The Shout
TTITLE4=Blessed Is He Who
TTITLE5=The Courtroom
TTITLE6=Mission 3:16
TTITLE7=Lazarus Come Forth
TTITLE8=Some-O-Dat
TTITLE9=America Again
EXTD=
EXTT0=
EXTT1=
EXTT2=
EXTT3=
EXTT4=
EXTT5=
EXTT6=
EXTT7=
EXTT8=
EXTT9=
PLAYORDER=
